<?xml version="1.0" standalone="no"?>
<!DOCTYPE svg PUBLIC "-//W3C//DTD SVG 20010904//EN"
 "http://www.w3.org/TR/2001/REC-SVG-20010904/DTD/svg10.dtd">
<svg version="1.0" xmlns="http://www.w3.org/2000/svg"
 width="1149.000000pt" height="1229.000000pt" viewBox="0 0 1149.000000 1229.000000"
 preserveAspectRatio="xMidYMid meet">

<g transform="translate(0.000000,1229.000000) scale(0.100000,-0.100000)"
fill="#000000" stroke="none">
<path d="M2758 9992 c-1319 -543 -2398 -992 -2398 -998 0 -14 778 -2556 785
-2562 9 -10 6 37 -67 1120 -47 697 -69 1081 -63 1087 6 5 945 401 2087 880
l2077 872 2073 -857 c1140 -471 2077 -860 2082 -865 6 -5 -12 -429 -43 -1065
-29 -581 -50 -1058 -48 -1060 2 -2 162 554 357 1236 194 682 351 1242 349
1244 -4 3 -4752 1941 -4779 1950 -8 3 -1094 -439 -2412 -982z"/>
<path d="M5099 6106 l-236 -111 -8 -177 -7 -178 266 -310 c147 -170 270 -310
274 -309 4 0 117 128 252 285 278 323 253 275 264 509 l7 140 -277 120 c-152
66 -282 124 -288 130 -8 8 -76 -19 -247 -99z"/>
<path d="M6311 1499 c-487 -318 -889 -579 -894 -579 -5 0 -415 239 -911 531
-495 292 -917 540 -936 552 -22 13 -30 14 -20 5 48 -50 1805 -1598 1811 -1596
4 2 405 363 891 803 1008 913 955 865 948 864 -3 0 -403 -261 -889 -580z"/>
</g>
</svg>
